<?xml version="1.0" encoding="utf-8"?>
<!-- Generator: Adobe Illustrator 16.0.0, SVG Export Plug-In . SVG Version: 6.00 Build 0)  -->
<!DOCTYPE svg PUBLIC "-//W3C//DTD SVG 1.1//EN" "http://www.w3.org/Graphics/SVG/1.1/DTD/svg11.dtd">
<svg version="1.1" id="floor_number0_svg" xmlns="http://www.w3.org/2000/svg" xmlns:xlink="http://www.w3.org/1999/xlink" x="0px" y="0px"
	 width="763.755px" height="387.734px" viewBox="0 0 763.755 387.734" enable-background="new 0 0 763.755 387.734"
	 xml:space="preserve">
<path fill="none" stroke="#000000" stroke-width="0.5955" stroke-miterlimit="10" d="M763.458,237.446v89.11
	c-5.25-1.88-10.899-2.9-16.8-2.9c-5.899,0-11.55,1.021-16.8,2.9c-19.35,6.899-33.2,25.38-33.2,47.1c0,4.78,0.67,9.4,1.93,13.78
	H172.668V247.965H63.458v-56.579h-21.05l-42.11-26.32v-31.57h63.16v-88.16h71.05v-27.63h65.79v1.13l10.53-18.24l25.83,44.74h91.28
	v22.37h74.99v36.84h151.32L763.458,237.446z"/>
<text transform="matrix(1 0 0 1 90.3154 190.7563)" font-family="'DFQiao-W1-WINP-BF'" font-size="36">GIVE a Grade A+ to unlock</text>
</svg>
